# xmcd
#
# Track frame offsets:
#	150
#	12898
#	31921
#	47386
#	61187
#	81690
#	97940
#	108418
#	123244
#	136127
#	151020
#	171718
#	185053
#	197354
#	212193
#	235211
#	249879
#	265449
#	280600
#	301673
#
# Disc length: 4238 seconds
#
# Revision: 1
# Processed by: cddbd v1.5.2PL0 Copyright (c) Steve Scherf et al.
# Submitted via: audiograbber 1.83.01
#
DISCID=06108c14
DTITLE=RMCMA - Record Vol 07
DYEAR=1900
DGENRE=
TTITLE0=Rain Rain Rain - Danny Edwards
TTITLE1=Chains  - David Hill
TTITLE2=Where Unicoms Play  - Dc Sayner
TTITLE3=Wooden Nickel Style  - Nat Chavis
TTITLE4=Black Velvet  - Jeni Lee Gibbs
TTITLE5=My Love  - John Acousta And Leroy
TTITLE6=Without Home, Lonely Me  - Sarah Sigman
TTITLE7=Never Had A Change  - Jim Thayer Jr
TTITLE8=Better Day  - Anneliz
TTITLE9=You´re Right  - Sandy Randall
TTITLE10=Give Me A Chance  - Aron Vaughn
TTITLE11=It´s Found Me Again  - Danny Edwards
TTITLE12=Forever Just Started Today  - Doug White
TTITLE13=Lonly Restless And Blue - John Acousta And Leroy
TTITLE14=Friends  - Sarah Sigman
TTITLE15=When You Need A Friend  - Aron Vaughn
TTITLE16=While She´s Been Sleeping  - Danny Edwards
TTITLE17=Where The Eagles Fly  - Jim Thayer Jr
TTITLE18=United We Stand - Sherry Havens
TTITLE19=Freedom Guarantee  - Jimmy Salazar
EXTD=
EXTT0=
EXTT1=
EXTT2=
EXTT3=
EXTT4=
EXTT5=
EXTT6=
EXTT7=
EXTT8=
EXTT9=
EXTT10=
EXTT11=
EXTT12=
EXTT13=
EXTT14=
EXTT15=
EXTT16=
EXTT17=
EXTT18=
EXTT19=
PLAYORDER=
